<svg xmlns="http://www.w3.org/2000/svg" viewBox="0 0 120 120" fill="none">
  <defs>
    <linearGradient id="heartLight" x1="0" y1="0" x2="1" y2="1">
      <stop offset="0%" stop-color="#ffffff"/>
      <stop offset="100%" stop-color="#d1fae5"/>
    </linearGradient>
  </defs>

  <path fill="url(#heartLight)"
        d="M60 102
           C 58 100, 18 76, 14 48
           C 10 24, 30 10, 46 18
           C 53 21, 58 27, 60 32
           C 62 27, 67 21, 74 18
           C 90 10, 110 24, 106 48
           C 102 76, 62 100, 60 102 Z"/>

  <g fill="#059669">
    <rect x="36" y="34" width="14" height="14" rx="2"/>
    <rect x="40" y="38" width="6" height="6" fill="#ffffff"/>
    <rect x="70" y="34" width="14" height="14" rx="2"/>
    <rect x="74" y="38" width="6" height="6" fill="#ffffff"/>
    <rect x="36" y="62" width="14" height="14" rx="2"/>
    <rect x="40" y="66" width="6" height="6" fill="#ffffff"/>

    <rect x="56" y="36" width="3" height="3"/>
    <rect x="62" y="36" width="3" height="3"/>
    <rect x="56" y="42" width="3" height="3"/>
    <rect x="62" y="42" width="3" height="3"/>

    <rect x="56" y="56" width="3" height="3"/>
    <rect x="62" y="56" width="3" height="3"/>
    <rect x="68" y="56" width="3" height="3"/>
    <rect x="74" y="56" width="3" height="3"/>

    <rect x="56" y="62" width="3" height="3"/>
    <rect x="68" y="62" width="3" height="3"/>
    <rect x="74" y="62" width="3" height="3"/>

    <rect x="56" y="68" width="3" height="3"/>
    <rect x="62" y="68" width="3" height="3"/>
    <rect x="74" y="68" width="3" height="3"/>

    <rect x="62" y="74" width="3" height="3"/>
    <rect x="68" y="74" width="3" height="3"/>
  </g>
</svg>
